<svg width="36" height="27" viewBox="0 0 36 27" fill="none" xmlns="http://www.w3.org/2000/svg">
<path d="M30.3 21.8H14C13 21.8 12.2 21.1 11.9 20.3L9.4 2.8C9 1.2 7.5 0 5.8 0H2.2C1 0 0 1.1 0 2.3C0 3.5 1 4.6 2.3 4.6H5.4L7.7 21C8.5 24 11.3 26.2 14.4 26.2H30.4C31.6 26.2 32.6 25.2 32.6 24C32.6 22.8 31.6 21.8 30.4 21.8H30.3ZM7 6L6.7 4C6.7 3.6 6.3 3.4 5.9 3.4H2.3C1.8 3.4 1.4 3 1.4 2.5C1.4 2 1.8 1.6 2.3 1.6H5.9C6.9 1.6 7.9 2.3 8.1 3.2L8.5 6.1C8.5 6.4 8.2 6.7 7.8 6.7C7.4 6.7 7.1 6.5 6.9 6.2L7 6ZM8.1 14.5L7.5 10.3C7.6 10.6 8 10.9 8.3 10.8C8.7 10.8 8.9 10.5 9 10.2L9.6 14.3C9.6 14.7 9.3 14.9 8.9 15C8.5 15 8.2 14.8 8.1 14.5ZM14.7 24.8H14.4C11.9 24.8 9.7 23.1 9 20.7L8.7 18.7C8.8 19 9.2 19.2 9.5 19.2C9.9 19.2 10.2 18.8 10.2 18.5L10.5 20.6C10.7 21.4 11.2 22.1 11.8 22.5C12.4 23 13.2 23.2 14 23.2H14.7C15 23.2 15.3 23.6 15.3 24C15.3 24.4 15 24.7 14.7 24.8ZM19 23.2H22.8C23.2 23.2 23.4 23.6 23.4 24C23.4 24.4 23.1 24.7 22.8 24.8H19C19.3 24.8 19.6 24.4 19.6 24C19.6 23.6 19.3 23.3 19 23.2ZM30.3 24.8H27.2C27.6 24.8 27.8 24.4 27.8 24C27.8 23.6 27.5 23.3 27.1 23.2H30.3C30.7 23.2 31.1 23.5 31.1 24C31.1 24.5 30.7 24.8 30.3 24.8Z" fill="#1D1D1B"/>
<path d="M13.6999 10.6984L12.8999 4.39844L13.6999 10.8984V10.6984ZM13.6999 10.6984L12.8999 4.39844L13.6999 10.8984V10.6984Z" fill="#1D1D1B"/>
<path d="M33.4999 3H12.6999C11.8999 3 11.3999 3.7 11.3999 4.4L12.1999 10.9L12.3999 12.3L13.2999 19.3C13.2999 19.9 13.8999 20.4 14.5999 20.4H30.3999C31.4999 20.4 32.4999 19.6 32.6999 18.6L35.6999 6C36.0999 4.5 34.8999 3.1 33.3999 3.1L33.4999 3ZM26.6999 4.3L25.8999 10.8H20.5999V4.3H26.6999ZM13.6999 4.3H19.1999V10.8H13.6999L12.9999 5.2C12.9999 4.7 13.2999 4.3 13.7999 4.3H13.6999ZM14.6999 18.3L13.8999 12.2H19.1999V18.9H15.3999C14.9999 18.9 14.6999 18.6 14.5999 18.2L14.6999 18.3ZM20.5999 19V12.3H25.6999L24.7999 19H20.5999ZM31.4999 18.2C31.4999 18.6 30.9999 19 30.4999 19H26.1999L27.0999 12.3H32.8999L31.4999 18.3V18.2ZM34.4999 5.6L33.1999 10.9H27.1999L27.9999 4.4H33.3999C33.6999 4.4 33.9999 4.5 34.1999 4.8C34.2999 4.9 34.4999 5.2 34.3999 5.7L34.4999 5.6Z" fill="#1D1D1B"/>
</svg>
